<svg width="128" height="128" viewBox="0 0 128 128" fill="none" xmlns="http://www.w3.org/2000/svg">
<circle cx="64" cy="64" r="64" fill="#141415"/>
<path d="M34.8953 89.936C35.13 89.9573 35.3967 89.9786 35.6953 90C36.0153 90 36.3887 90 36.8153 90C39.3113 90 41.1567 89.3706 42.3513 88.112C43.5673 86.8533 44.1753 85.1146 44.1753 82.896C44.1753 80.5706 43.5993 78.8106 42.4473 77.616C41.2953 76.4213 39.4713 75.824 36.9753 75.824C36.634 75.824 36.282 75.8346 35.9193 75.856C35.5567 75.856 35.2153 75.8773 34.8953 75.92V89.936ZM49.3273 82.896C49.3273 84.816 49.0287 86.4906 48.4313 87.92C47.834 89.3493 46.9807 90.5333 45.8713 91.472C44.7833 92.4106 43.45 93.1146 41.8713 93.584C40.2927 94.0533 38.522 94.288 36.5593 94.288C35.6633 94.288 34.618 94.2453 33.4233 94.16C32.2287 94.096 31.0553 93.9466 29.9033 93.712V72.112C31.0553 71.8986 32.25 71.76 33.4873 71.696C34.746 71.6106 35.8233 71.568 36.7193 71.568C38.618 71.568 40.3353 71.7813 41.8713 72.208C43.4287 72.6346 44.762 73.3066 45.8713 74.224C46.9807 75.1413 47.834 76.3146 48.4313 77.744C49.0287 79.1733 49.3273 80.8906 49.3273 82.896Z" fill="#09715D"/>
<path d="M59.6091 90.672C60.0784 90.672 60.5264 90.6613 60.9531 90.64C61.3797 90.6186 61.7211 90.5866 61.9771 90.544V86.928C61.7851 86.8853 61.4971 86.8426 61.1131 86.8C60.7291 86.7573 60.3771 86.736 60.0571 86.736C59.6091 86.736 59.1824 86.768 58.7771 86.832C58.3931 86.8746 58.0517 86.9706 57.7531 87.12C57.4544 87.2693 57.2197 87.472 57.0491 87.728C56.8784 87.984 56.7931 88.304 56.7931 88.688C56.7931 89.4346 57.0384 89.9573 57.5291 90.256C58.0411 90.5333 58.7344 90.672 59.6091 90.672ZM59.2251 76.72C60.6331 76.72 61.8064 76.88 62.7451 77.2C63.6837 77.52 64.4304 77.9786 64.9851 78.576C65.5611 79.1733 65.9664 79.8986 66.2011 80.752C66.4357 81.6053 66.5531 82.5546 66.5531 83.6V93.52C65.8704 93.6693 64.9211 93.84 63.7051 94.032C62.4891 94.2453 61.0171 94.352 59.2891 94.352C58.2011 94.352 57.2091 94.256 56.3131 94.064C55.4384 93.872 54.6811 93.5626 54.0411 93.136C53.4011 92.688 52.9104 92.112 52.5691 91.408C52.2277 90.704 52.0571 89.84 52.0571 88.816C52.0571 87.8346 52.2491 87.0026 52.6331 86.32C53.0384 85.6373 53.5717 85.0933 54.2331 84.688C54.8944 84.2826 55.6517 83.9946 56.5051 83.824C57.3584 83.632 58.2437 83.536 59.1611 83.536C59.7797 83.536 60.3237 83.568 60.7931 83.632C61.2837 83.6746 61.6784 83.7386 61.9771 83.824V83.376C61.9771 82.5653 61.7317 81.9146 61.2411 81.424C60.7504 80.9333 59.8971 80.688 58.6811 80.688C57.8704 80.688 57.0704 80.752 56.2811 80.88C55.4917 80.9866 54.8091 81.1466 54.2331 81.36L53.6251 77.52C53.9024 77.4346 54.2437 77.3493 54.6491 77.264C55.0757 77.1573 55.5344 77.072 56.0251 77.008C56.5157 76.9226 57.0277 76.8586 57.5611 76.816C58.1157 76.752 58.6704 76.72 59.2251 76.72Z" fill="#09715D"/>
<path d="M81.0086 81.392C80.5819 81.2853 80.0806 81.1786 79.5046 81.072C78.9286 80.944 78.3099 80.88 77.6486 80.88C77.3499 80.88 76.9872 80.912 76.5606 80.976C76.1552 81.0186 75.8459 81.072 75.6326 81.136V94H70.8646V78.064C71.7179 77.7653 72.7206 77.488 73.8726 77.232C75.0459 76.9546 76.3472 76.816 77.7766 76.816C78.0326 76.816 78.3419 76.8373 78.7046 76.88C79.0672 76.9013 79.4299 76.944 79.7926 77.008C80.1552 77.0506 80.5179 77.1146 80.8806 77.2C81.2432 77.264 81.5526 77.3493 81.8086 77.456L81.0086 81.392Z" fill="#09715D"/>
<path d="M89.1326 83.248C89.6019 82.736 90.0819 82.2026 90.5726 81.648C91.0846 81.0933 91.5752 80.5493 92.0446 80.016C92.5139 79.4613 92.9512 78.9386 93.3566 78.448C93.7832 77.9573 94.1459 77.5306 94.4446 77.168H100.109C98.9779 78.4693 97.8686 79.7173 96.7806 80.912C95.7139 82.0853 94.5406 83.3013 93.2606 84.56C93.9006 85.136 94.5619 85.8293 95.2446 86.64C95.9272 87.4293 96.5886 88.2506 97.2286 89.104C97.8686 89.9573 98.4552 90.8106 98.9886 91.664C99.5219 92.5173 99.9699 93.296 100.333 94H94.8606C94.5192 93.4453 94.1246 92.8373 93.6766 92.176C93.2499 91.4933 92.7912 90.8213 92.3006 90.16C91.8099 89.4773 91.2872 88.8266 90.7326 88.208C90.1992 87.5893 89.6659 87.0666 89.1326 86.64V94H84.3646V69.936L89.1326 69.168V83.248Z" fill="#09715D"/>
<path d="M28.8465 39.4471C29.0985 39.9091 29.3855 40.4831 29.7075 41.1691C30.0435 41.8411 30.3865 42.5761 30.7365 43.3741C31.1005 44.1581 31.4575 44.9631 31.8075 45.7891C32.1575 46.6151 32.4865 47.3921 32.7945 48.1201C33.1025 47.3921 33.4315 46.6151 33.7815 45.7891C34.1315 44.9631 34.4815 44.1581 34.8315 43.3741C35.1955 42.5761 35.5385 41.8411 35.8605 41.1691C36.1965 40.4831 36.4905 39.9091 36.7425 39.4471H39.7245C39.8645 40.4131 39.9905 41.4981 40.1025 42.7021C40.2285 43.8921 40.3335 45.1381 40.4175 46.4401C40.5155 47.7281 40.5995 49.0231 40.6695 50.3251C40.7535 51.6271 40.8235 52.8521 40.8795 54.0001H37.6875C37.6455 52.5861 37.5895 51.0461 37.5195 49.3801C37.4495 47.7141 37.3445 46.0341 37.2045 44.3401C36.9525 44.9281 36.6725 45.5791 36.3645 46.2931C36.0565 47.0071 35.7485 47.7211 35.4405 48.4351C35.1465 49.1491 34.8595 49.8351 34.5795 50.4931C34.2995 51.1371 34.0615 51.6901 33.8655 52.1521H31.5765C31.3805 51.6901 31.1425 51.1371 30.8625 50.4931C30.5825 49.8351 30.2885 49.1491 29.9805 48.4351C29.6865 47.7211 29.3855 47.0071 29.0775 46.2931C28.7695 45.5791 28.4895 44.9281 28.2375 44.3401C28.0975 46.0341 27.9925 47.7141 27.9225 49.3801C27.8525 51.0461 27.7965 52.5861 27.7545 54.0001H24.5625C24.6185 52.8521 24.6815 51.6271 24.7515 50.3251C24.8355 49.0231 24.9195 47.7281 25.0035 46.4401C25.1015 45.1381 25.2065 43.8921 25.3185 42.7021C25.4445 41.4981 25.5775 40.4131 25.7175 39.4471H28.8465Z" fill="white"/>
<path d="M53.4262 42.9541C52.7962 45.0821 52.1382 47.0771 51.4522 48.9391C50.7662 50.8011 50.0172 52.6071 49.2052 54.3571C48.9112 54.9871 48.6172 55.5191 48.3232 55.9531C48.0292 56.4011 47.7072 56.7651 47.3572 57.0451C47.0072 57.3391 46.6082 57.5491 46.1602 57.6751C45.7262 57.8151 45.2152 57.8851 44.6272 57.8851C44.1372 57.8851 43.6822 57.8361 43.2622 57.7381C42.8562 57.6541 42.5202 57.5561 42.2542 57.4441L42.8002 54.9451C43.1222 55.0571 43.4092 55.1341 43.6612 55.1761C43.9132 55.2181 44.1792 55.2391 44.4592 55.2391C45.0192 55.2391 45.4462 55.0851 45.7402 54.7771C46.0482 54.4831 46.3072 54.0701 46.5172 53.5381C45.8032 52.1381 45.0892 50.5701 44.3752 48.8341C43.6612 47.0841 42.9892 45.1241 42.3592 42.9541H45.6772C45.8172 43.5001 45.9782 44.0951 46.1602 44.7391C46.3562 45.3691 46.5592 46.0131 46.7692 46.6711C46.9792 47.3151 47.1892 47.9451 47.3992 48.5611C47.6232 49.1771 47.8332 49.7371 48.0292 50.2411C48.2112 49.7371 48.4002 49.1771 48.5962 48.5611C48.7922 47.9451 48.9812 47.3151 49.1632 46.6711C49.3592 46.0131 49.5412 45.3691 49.7092 44.7391C49.8912 44.0951 50.0522 43.5001 50.1922 42.9541H53.4262Z" fill="white"/>
<path d="M61.9496 54.2941C59.5836 54.2941 57.7776 53.6361 56.5316 52.3201C55.2996 51.0041 54.6836 49.1351 54.6836 46.7131C54.6836 45.5091 54.8726 44.4381 55.2506 43.5001C55.6286 42.5481 56.1466 41.7501 56.8046 41.1061C57.4626 40.4481 58.2466 39.9511 59.1566 39.6151C60.0666 39.2791 61.0536 39.1111 62.1176 39.1111C62.7336 39.1111 63.2936 39.1601 63.7976 39.2581C64.3016 39.3421 64.7426 39.4471 65.1206 39.5731C65.4986 39.6851 65.8136 39.8041 66.0656 39.9301C66.3176 40.0561 66.4996 40.1541 66.6116 40.2241L65.6666 42.8701C65.2186 42.6321 64.6936 42.4291 64.0916 42.2611C63.5036 42.0931 62.8316 42.0091 62.0756 42.0091C61.5716 42.0091 61.0746 42.0931 60.5846 42.2611C60.1086 42.4291 59.6816 42.7021 59.3036 43.0801C58.9396 43.4441 58.6456 43.9201 58.4216 44.5081C58.1976 45.0961 58.0856 45.8101 58.0856 46.6501C58.0856 47.3221 58.1556 47.9521 58.2956 48.5401C58.4496 49.1141 58.6876 49.6111 59.0096 50.0311C59.3456 50.4511 59.7796 50.7871 60.3116 51.0391C60.8436 51.2771 61.4876 51.3961 62.2436 51.3961C62.7196 51.3961 63.1466 51.3681 63.5246 51.3121C63.9026 51.2561 64.2386 51.1931 64.5326 51.1231C64.8266 51.0391 65.0856 50.9481 65.3096 50.8501C65.5336 50.7521 65.7366 50.6611 65.9186 50.5771L66.8216 53.2021C66.3596 53.4821 65.7086 53.7341 64.8686 53.9581C64.0286 54.1821 63.0556 54.2941 61.9496 54.2941Z" fill="white"/>
<path d="M78.8066 48.4561C78.8066 49.3241 78.6806 50.1221 78.4286 50.8501C78.1766 51.5641 77.8126 52.1801 77.3366 52.6981C76.8606 53.2021 76.2867 53.5941 75.6147 53.8741C74.9567 54.1541 74.2146 54.2941 73.3886 54.2941C72.5766 54.2941 71.8346 54.1541 71.1626 53.8741C70.5046 53.5941 69.9376 53.2021 69.4616 52.6981C68.9856 52.1801 68.6146 51.5641 68.3486 50.8501C68.0826 50.1221 67.9496 49.3241 67.9496 48.4561C67.9496 47.5881 68.0826 46.7971 68.3486 46.0831C68.6286 45.3691 69.0066 44.7601 69.4826 44.2561C69.9726 43.7521 70.5466 43.3601 71.2046 43.0801C71.8766 42.8001 72.6046 42.6601 73.3886 42.6601C74.1866 42.6601 74.9146 42.8001 75.5726 43.0801C76.2446 43.3601 76.8186 43.7521 77.2946 44.2561C77.7706 44.7601 78.1417 45.3691 78.4076 46.0831C78.6736 46.7971 78.8066 47.5881 78.8066 48.4561ZM75.6147 48.4561C75.6147 47.4901 75.4186 46.7341 75.0266 46.1881C74.6486 45.6281 74.1026 45.3481 73.3886 45.3481C72.6746 45.3481 72.1216 45.6281 71.7296 46.1881C71.3376 46.7341 71.1416 47.4901 71.1416 48.4561C71.1416 49.4221 71.3376 50.1921 71.7296 50.7661C72.1216 51.3261 72.6746 51.6061 73.3886 51.6061C74.1026 51.6061 74.6486 51.3261 75.0266 50.7661C75.4186 50.1921 75.6147 49.4221 75.6147 48.4561Z" fill="white"/>
<path d="M83.8975 48.3931C83.8975 49.3591 84.1145 50.1361 84.5485 50.7241C84.9825 51.3121 85.6265 51.6061 86.4805 51.6061C86.7605 51.6061 87.0195 51.5991 87.2575 51.5851C87.4955 51.5571 87.6915 51.5291 87.8455 51.5011V45.8101C87.6495 45.6841 87.3905 45.5791 87.0685 45.4951C86.7605 45.4111 86.4455 45.3691 86.1235 45.3691C84.6395 45.3691 83.8975 46.3771 83.8975 48.3931ZM90.9745 53.6431C90.6945 53.7271 90.3725 53.8111 90.0085 53.8951C89.6445 53.9651 89.2595 54.0281 88.8535 54.0841C88.4615 54.1401 88.0555 54.1821 87.6355 54.2101C87.2295 54.2521 86.8375 54.2731 86.4595 54.2731C85.5495 54.2731 84.7375 54.1401 84.0235 53.8741C83.3095 53.6081 82.7075 53.2301 82.2175 52.7401C81.7275 52.2361 81.3495 51.6341 81.0835 50.9341C80.8315 50.2201 80.7055 49.4221 80.7055 48.5401C80.7055 47.6441 80.8175 46.8391 81.0415 46.1251C81.2655 45.3971 81.5875 44.7811 82.0075 44.2771C82.4275 43.7731 82.9385 43.3881 83.5405 43.1221C84.1565 42.8561 84.8565 42.7231 85.6405 42.7231C86.0745 42.7231 86.4595 42.7651 86.7955 42.8491C87.1455 42.9331 87.4955 43.0521 87.8455 43.2061V38.2081L90.9745 37.7041V53.6431Z" fill="white"/>
<path d="M93.3793 48.5611C93.3793 47.5811 93.5263 46.7271 93.8203 45.9991C94.1283 45.2571 94.5273 44.6411 95.0173 44.1511C95.5073 43.6611 96.0673 43.2901 96.6973 43.0381C97.3413 42.7861 97.9993 42.6601 98.6713 42.6601C100.239 42.6601 101.478 43.1431 102.388 44.1091C103.298 45.0611 103.753 46.4681 103.753 48.3301C103.753 48.5121 103.746 48.7151 103.732 48.9391C103.718 49.1491 103.704 49.3381 103.69 49.5061H96.5923C96.6623 50.1501 96.9633 50.6611 97.4953 51.0391C98.0273 51.4171 98.7413 51.6061 99.6373 51.6061C100.211 51.6061 100.771 51.5571 101.317 51.4591C101.877 51.3471 102.332 51.2141 102.682 51.0601L103.102 53.6011C102.934 53.6851 102.71 53.7691 102.43 53.8531C102.15 53.9371 101.835 54.0071 101.485 54.0631C101.149 54.1331 100.785 54.1891 100.393 54.2311C100.001 54.2731 99.6093 54.2941 99.2173 54.2941C98.2233 54.2941 97.3553 54.1471 96.6133 53.8531C95.8853 53.5591 95.2763 53.1601 94.7863 52.6561C94.3103 52.1381 93.9533 51.5291 93.7153 50.8291C93.4913 50.1291 93.3793 49.3731 93.3793 48.5611ZM100.729 47.3641C100.715 47.0981 100.666 46.8391 100.582 46.5871C100.512 46.3351 100.393 46.1111 100.225 45.9151C100.071 45.7191 99.8683 45.5581 99.6163 45.4321C99.3783 45.3061 99.0773 45.2431 98.7133 45.2431C98.3633 45.2431 98.0623 45.3061 97.8103 45.4321C97.5583 45.5441 97.3483 45.6981 97.1803 45.8941C97.0123 46.0901 96.8793 46.3211 96.7813 46.5871C96.6973 46.8391 96.6343 47.0981 96.5923 47.3641H100.729Z" fill="white"/>
</svg>
